<svg width="251" height="64" viewBox="0 0 251 64" fill="none" xmlns="http://www.w3.org/2000/svg">
<path d="M45.7946 52.7135C46.0108 51.9784 46.2703 51.2865 46.5297 50.5513C48.0432 46.2703 49.773 41.9892 52.1514 38.0973C53.3622 36.1513 54.6162 34.2054 56.0432 32.3892C57.3838 30.6594 58.8541 28.9297 60.4541 27.4162C60.7568 27.1567 61.0162 26.854 61.3189 26.5946L60.9297 23.7838C59.7622 25.2108 58.5946 26.6378 57.4703 28.1081C52.5838 34.5081 48.0865 41.2108 44.1081 48.2162C43.0703 49.9892 42.1189 51.8054 41.1243 53.6216L45.7946 52.7135Z" fill="white"/>
<path d="M50.6378 32.0865C52.627 29.2757 54.7027 26.5081 56.8649 23.827C56.2595 24.173 55.6973 24.5621 55.1351 24.9946C54.227 25.7297 53.4054 26.5081 52.627 27.3297C51.9351 28.1081 51.2432 28.8865 50.5946 29.7081C47.3081 33.9892 44.8 38.8324 42.6811 43.7621C42.4216 44.4108 42.1189 45.1027 41.8595 45.7946C44.5838 41.1243 47.4811 36.5405 50.6378 32.0865Z" fill="white"/>
<path d="M61.3622 49.5135C63.1351 49.1243 64.3459 47.4378 64.0865 45.6216L63.1351 39.0054C62.7027 39.2216 62.2703 39.4378 61.8811 39.6973C61.0162 40.2162 60.1946 40.7784 59.4162 41.3838C56.3027 43.8486 53.5784 46.8324 51.1568 49.9459C50.6378 50.5946 50.1622 51.2432 49.6865 51.9351L61.3622 49.5135Z" fill="white"/>
<path d="M27.8054 53.6649C28.4541 55.1351 30.0541 55.9567 31.6541 55.654L36.2378 54.7027C36.4973 53.7513 36.8 52.7567 37.1027 51.8054C38.5297 47.3081 40.173 42.854 42.2486 38.6162C44.2378 34.5946 46.4865 30.6162 49.3838 27.1567C50.8108 25.427 52.3676 23.827 54.1838 22.5297C55.9135 21.3189 57.8162 20.2811 59.7622 19.4595C59.8919 19.4162 60.0649 19.3297 60.1946 19.2865L59.1568 11.6757C58.8541 9.51351 56.6054 8.17297 54.5297 8.95134L17.9459 22.4865C16.0865 23.1784 15.1784 25.2973 16 27.1135L27.8054 53.6649Z" fill="white"/>
<path d="M50.7243 46.054C50.6811 46.0973 50.6811 46.1838 50.6378 46.227C51.8919 44.7135 53.2324 43.2432 54.6595 41.8595C56.173 40.3892 57.773 39.0054 59.546 37.8378C60.5405 37.1892 61.6216 36.5838 62.7027 36.0649L61.7081 29.4054C61.4487 29.6649 61.146 29.9676 60.8865 30.227C59.8054 31.3946 58.7676 32.6054 57.8162 33.8162C56.3892 35.7189 55.0487 37.6649 53.8378 39.6973C52.6703 41.773 51.6324 43.8919 50.7243 46.054Z" fill="white"/>
<path d="M82.2054 23.4378V26.0324H78.6162V37.1027H75.4595V26.0757H73.7297V23.4378H75.4595V22.4432C75.4595 19.4162 76.973 17.9459 79.6973 17.9459C80.7784 17.9459 81.5567 18.1189 82.2486 18.2919V20.973C81.6432 20.7567 81.0811 20.627 80.3892 20.627C79.1784 20.627 78.573 21.2757 78.573 22.7027V23.4811H82.2054V23.4378Z" fill="white"/>
<path d="M88.7351 37.1459H85.5784V23.3514H88.7351V26.4649C89.6 24.3892 91.2 23.0054 93.6216 23.0919V26.4216H93.4486C90.6811 26.4216 88.7351 28.2378 88.7351 31.8703V37.1459Z" fill="white"/>
<path d="M102.789 34.854C104.346 34.854 105.427 34.2919 106.508 33.2108L108.368 34.854C107.07 36.4108 105.254 37.4486 102.746 37.4486C98.7676 37.4486 95.6541 34.5513 95.6541 30.2703C95.6541 26.2919 98.4649 23.0486 102.4 23.0486C106.768 23.0486 109.016 26.5081 109.016 30.4865C109.016 30.7892 108.973 31.0486 108.973 31.3513H98.8541C99.2 33.6 100.757 34.854 102.789 34.854ZM105.859 29.2757C105.643 27.2432 104.432 25.6432 102.357 25.6432C100.411 25.6432 99.0703 27.1135 98.7676 29.2757H105.859Z" fill="white"/>
<path d="M116.93 37.4054C114.984 37.4054 112.822 36.7135 111.092 35.3297L112.519 33.1676C113.989 34.2919 115.632 34.8541 117.016 34.8541C118.357 34.8541 119.178 34.2919 119.178 33.3838V33.3405C119.178 32.2595 117.708 31.9135 116.108 31.3946C114.076 30.8324 111.784 29.9676 111.784 27.3297V27.2865C111.784 24.6919 113.946 23.0919 116.67 23.0919C118.4 23.0919 120.259 23.6973 121.73 24.6486L120.476 26.8973C119.135 26.0757 117.751 25.6 116.584 25.6C115.373 25.6 114.638 26.1622 114.638 26.9838V27.027C114.638 28.0216 116.108 28.4541 117.751 28.973C119.741 29.5784 122.032 30.5297 122.032 32.9946V33.0378C122.032 35.9351 119.784 37.4054 116.93 37.4054Z" fill="white"/>
<path d="M128.389 37.1459H125.232V18.0757H128.389V25.4703C129.297 24.173 130.551 23.0486 132.714 23.0486C135.827 23.0486 137.6 25.1243 137.6 28.3676V37.1459H134.443V29.2757C134.443 27.1135 133.362 25.9027 131.503 25.9027C129.686 25.9027 128.389 27.2 128.389 29.3189V37.1459Z" fill="white"/>
<path d="M141.232 26.7243L144.778 23.827C146.119 22.7459 146.638 22.1405 146.638 21.2757C146.638 20.3676 146.032 19.8919 145.211 19.8919C144.389 19.8919 143.827 20.3676 143.049 21.3189L141.405 19.9784C142.443 18.5513 143.481 17.773 145.384 17.773C147.589 17.773 149.059 19.0703 149.059 21.0595V21.1027C149.059 22.8757 148.151 23.7838 146.249 25.254L144.519 26.5946H149.189V28.627H141.276V26.7243H141.232Z" fill="white"/>
<path d="M162.984 37.1459V34.854C161.946 36.2811 160.519 37.4486 158.27 37.4486C155.027 37.4486 151.87 34.854 151.87 30.2703C151.87 25.6865 154.984 23.0919 158.27 23.0919C160.562 23.0919 161.989 24.2595 162.984 25.5135V18.0757H166.141V37.1459H162.984ZM159.049 25.8162C156.886 25.8162 155.07 27.5027 155.07 30.2703C155.07 32.9946 156.886 34.7243 159.049 34.7243C161.168 34.7243 163.027 32.9946 163.027 30.2703C163.027 27.5459 161.168 25.8162 159.049 25.8162Z" fill="white"/>
<path d="M176.519 34.854C178.076 34.854 179.157 34.2919 180.238 33.2108L182.097 34.854C180.8 36.4108 178.984 37.4486 176.476 37.4486C172.497 37.4486 169.384 34.5513 169.384 30.2703C169.384 26.2919 172.195 23.0486 176.13 23.0486C180.497 23.0486 182.746 26.5081 182.746 30.4865C182.746 30.7892 182.703 31.0486 182.703 31.3513H172.541C172.886 33.6 174.486 34.854 176.519 34.854ZM179.589 29.2757C179.373 27.2432 178.162 25.6432 176.086 25.6432C174.141 25.6432 172.8 27.1135 172.497 29.2757H179.589Z" fill="white"/>
<path d="M190.616 37.4054C188.67 37.4054 186.508 36.7135 184.778 35.3297L186.205 33.1676C187.676 34.2919 189.319 34.8541 190.703 34.8541C192.043 34.8541 192.865 34.2919 192.865 33.3838V33.3405C192.865 32.2595 191.395 31.9135 189.795 31.3946C187.762 30.8324 185.47 29.9676 185.47 27.3297V27.2865C185.47 24.6919 187.632 23.0919 190.4 23.0919C192.13 23.0919 193.989 23.6973 195.459 24.6486L194.205 26.8973C192.865 26.0757 191.481 25.6 190.314 25.6C189.103 25.6 188.368 26.1622 188.368 26.9838V27.027C188.368 28.0216 189.838 28.4541 191.481 28.973C193.47 29.5784 195.762 30.5297 195.762 32.9946V33.0378C195.762 35.9351 193.514 37.4054 190.616 37.4054Z" fill="white"/>
<path d="M199.005 21.2324V18.2486H202.378V21.2324H199.005ZM199.135 37.1459V23.3513H202.292V37.1459H199.135Z" fill="white"/>
<path d="M212.022 41.3405C209.73 41.3405 207.654 40.7784 205.881 39.6973L207.049 37.3189C208.519 38.227 210.076 38.7892 211.935 38.7892C214.746 38.7892 216.303 37.3189 216.303 34.5513V33.4703C215.135 34.9405 213.708 36.0216 211.459 36.0216C208.216 36.0216 205.189 33.6432 205.189 29.5351C205.189 25.427 208.259 23.0486 211.459 23.0486C213.795 23.0486 215.222 24.1297 216.303 25.3838V23.3513H219.459V34.3351C219.459 39.1784 216.778 41.3405 212.022 41.3405ZM212.281 25.7297C210.076 25.7297 208.346 27.2432 208.346 29.5351C208.346 31.827 210.076 33.3838 212.281 33.3838C214.486 33.3838 216.346 31.827 216.346 29.5784C216.346 27.2432 214.486 25.7297 212.281 25.7297Z" fill="white"/>
<path d="M226.032 37.1459H222.876V23.3513H226.032V25.5135C226.941 24.2162 228.195 23.0919 230.357 23.0919C233.47 23.0919 235.243 25.1676 235.243 28.4108V37.1892H232.086V29.2757C232.086 27.1135 231.005 25.9027 229.146 25.9027C227.33 25.9027 226.032 27.2 226.032 29.3189V37.1459Z" fill="white"/>
</svg>
