<svg width="80" height="80" viewBox="0 0 80 80" fill="none" xmlns="http://www.w3.org/2000/svg">
<path d="M16.8078 50.5537C16.8078 55.1792 13.0293 58.9577 8.40391 58.9577C3.7785 58.9577 0 55.1792 0 50.5537C0 45.9283 3.7785 42.1498 8.40391 42.1498H16.8078V50.5537Z" fill="white"/>
<path d="M21.0423 50.5537C21.0423 45.9283 24.8208 42.1498 29.4462 42.1498C34.0716 42.1498 37.8501 45.9283 37.8501 50.5537V71.5961C37.8501 76.2215 34.0716 80 29.4462 80C24.8208 80 21.0423 76.2215 21.0423 71.5961V50.5537Z" fill="white"/>
<path d="M29.4462 16.8078C24.8208 16.8078 21.0423 13.0293 21.0423 8.40391C21.0423 3.7785 24.8208 0 29.4462 0C34.0716 0 37.8501 3.7785 37.8501 8.40391V16.8078H29.4462Z" fill="white"/>
<path d="M29.4462 21.0424C34.0716 21.0424 37.8501 24.8209 37.8501 29.4463C37.8501 34.0717 34.0716 37.8502 29.4462 37.8502H8.4039C3.7785 37.8502 0 34.0717 0 29.4463C0 24.8209 3.7785 21.0424 8.4039 21.0424H29.4462Z" fill="white"/>
<path d="M63.1922 29.4463C63.1922 24.8209 66.9707 21.0424 71.5961 21.0424C76.2215 21.0424 80 24.8209 80 29.4463C80 34.0717 76.2215 37.8502 71.5961 37.8502H63.1922V29.4463Z" fill="white"/>
<path d="M58.9576 29.4463C58.9576 34.0717 55.1791 37.8502 50.5537 37.8502C45.9283 37.8502 42.1498 34.0717 42.1498 29.4463V8.40391C42.1498 3.7785 45.9283 0 50.5537 0C55.1791 0 58.9576 3.7785 58.9576 8.40391V29.4463Z" fill="white"/>
<path d="M50.5537 63.1922C55.1791 63.1922 58.9576 66.9707 58.9576 71.5961C58.9576 76.2215 55.1791 80 50.5537 80C45.9283 80 42.1498 76.2215 42.1498 71.5961V63.1922H50.5537Z" fill="white"/>
<path d="M50.5537 58.9577C45.9283 58.9577 42.1498 55.1792 42.1498 50.5537C42.1498 45.9283 45.9283 42.1498 50.5537 42.1498H71.5961C76.2215 42.1498 80 45.9283 80 50.5537C80 55.1792 76.2215 58.9577 71.5961 58.9577H50.5537Z" fill="white"/>
</svg>
